<?xml version="1.0" encoding="UTF-8" standalone="no"?>
<svg
    xmlns:dc="http://purl.org/dc/elements/1.1/"
    xmlns:cc="http://creativecommons.org/ns#"
    xmlns:rdf="http://www.w3.org/1999/02/22-rdf-syntax-ns#"
    xmlns:svg="http://www.w3.org/2000/svg"
    xmlns="http://www.w3.org/2000/svg"
    xmlns:sodipodi="http://sodipodi.sourceforge.net/DTD/sodipodi-0.dtd"
    xmlns:inkscape="http://www.inkscape.org/namespaces/inkscape"
    viewBox="0 0 541.18091 150.86667"
    height="150.86667"
    width="541.18091"
    xml:space="preserve"
    id="svg2"
    version="1.1"
    sodipodi:docname="MAW_Austria_REV-noborder.svg"
    inkscape:version="0.92.4 (5da689c313, 2019-01-14)"><sodipodi:namedview
     pagecolor="#ffffff"
     bordercolor="#666666"
     borderopacity="1"
     objecttolerance="10"
     gridtolerance="10"
     guidetolerance="10"
     inkscape:pageopacity="0"
     inkscape:pageshadow="2"
     inkscape:window-width="1920"
     inkscape:window-height="1017"
     id="namedview18"
     showgrid="false"
     fit-margin-top="0"
     fit-margin-left="0"
     fit-margin-right="0"
     fit-margin-bottom="0"
     inkscape:zoom="0.295"
     inkscape:cx="271.93694"
     inkscape:cy="57.533342"
     inkscape:window-x="-8"
     inkscape:window-y="-8"
     inkscape:window-maximized="1"
     inkscape:current-layer="svg2" /><metadata
    id="metadata8"><rdf:RDF><cc:Work
         rdf:about=""><dc:format>image/svg+xml</dc:format><dc:type
    rdf:resource="http://purl.org/dc/dcmitype/StillImage" /><dc:title></dc:title></cc:Work></rdf:RDF></metadata><defs
    id="defs6" /><g
    transform="matrix(1.3333333,0,0,-1.3333333,-128.06306,493.33332)"
    id="g10"><g
       transform="scale(0.1)"
       id="g12"><path
         id="path14"
         style="fill:#ffffff;fill-opacity:1;fill-rule:nonzero;stroke:none"
         d="m 2446.74,2719.97 c 0,-1.63 -0.31,-3.15 -0.94,-4.59 -0.63,-1.44 -1.5,-2.7 -2.62,-3.78 -1.1,-1.09 -2.39,-1.93 -3.86,-2.52 -1.48,-0.61 -3.02,-0.9 -4.64,-0.9 -1.68,0 -3.25,0.29 -4.72,0.9 -1.47,0.59 -2.74,1.43 -3.83,2.52 -1.08,1.08 -1.93,2.34 -2.57,3.78 -0.62,1.44 -0.93,2.96 -0.93,4.59 0,1.62 0.31,3.16 0.93,4.63 0.64,1.47 1.49,2.76 2.57,3.87 1.09,1.11 2.36,1.99 3.83,2.66 1.47,0.65 3.04,0.98 4.72,0.98 1.62,0 3.16,-0.33 4.64,-0.98 1.47,-0.67 2.76,-1.55 3.86,-2.66 1.12,-1.11 1.99,-2.4 2.62,-3.87 0.63,-1.47 0.94,-3.01 0.94,-4.63 z m -39.6,0 c 0,-1.63 -0.32,-3.15 -0.99,-4.59 -0.66,-1.44 -1.54,-2.7 -2.65,-3.78 -1.12,-1.09 -2.42,-1.93 -3.92,-2.52 -1.49,-0.61 -3.09,-0.9 -4.77,-0.9 -1.56,0 -3.04,0.29 -4.45,0.9 -1.41,0.59 -2.65,1.43 -3.74,2.52 -1.07,1.08 -1.95,2.34 -2.61,3.78 -0.66,1.44 -0.99,2.96 -0.99,4.59 0,1.62 0.33,3.16 0.99,4.63 0.66,1.47 1.54,2.76 2.61,3.87 1.09,1.11 2.33,1.99 3.74,2.66 1.41,0.65 2.89,0.98 4.45,0.98 1.68,0 3.28,-0.33 4.77,-0.98 1.5,-0.67 2.8,-1.55 3.92,-2.66 1.11,-1.11 1.99,-2.4 2.65,-3.87 0.67,-1.47 0.99,-3.01 0.99,-4.63 z m 48.69,-84.97 c 0,7.14 -0.96,13.55 -2.88,19.22 -1.91,5.67 -4.65,10.48 -8.18,14.45 -3.55,3.95 -7.86,6.99 -12.92,9.09 -5.07,2.1 -10.79,3.14 -17.14,3.14 -6.37,0 -12.08,-1.04 -17.15,-3.14 -5.07,-2.1 -9.4,-5.14 -12.96,-9.09 -3.57,-3.97 -6.32,-8.78 -8.23,-14.45 -1.93,-5.67 -2.88,-12.08 -2.88,-19.22 0,-7.13 0.95,-13.54 2.88,-19.2 1.91,-5.68 4.66,-10.48 8.23,-14.41 3.56,-3.92 7.89,-6.94 12.96,-9.04 5.07,-2.1 10.78,-3.16 17.15,-3.16 6.35,0 12.07,1.06 17.14,3.16 5.06,2.1 9.37,5.12 12.92,9.04 3.53,3.93 6.27,8.73 8.18,14.41 1.92,5.66 2.88,12.07 2.88,19.2 z m 24.76,0 c 0,-9.54 -1.59,-18.36 -4.73,-26.5 -3.15,-8.13 -7.61,-15.17 -13.37,-21.1 -5.76,-5.94 -12.69,-10.58 -20.79,-13.91 -8.1,-3.33 -17.1,-4.99 -26.99,-4.99 -9.85,0 -18.82,1.66 -26.92,4.99 -8.09,3.33 -15.05,7.97 -20.84,13.91 -5.79,5.93 -10.27,12.97 -13.44,21.1 -3.19,8.14 -4.78,16.96 -4.78,26.5 0,9.55 1.59,18.38 4.78,26.51 3.17,8.13 7.65,15.16 13.44,21.1 5.79,5.95 12.75,10.58 20.84,13.91 8.1,3.33 17.07,5 26.92,5 6.59,0 12.8,-0.77 18.62,-2.3 5.82,-1.53 11.16,-3.69 16.03,-6.48 4.85,-2.78 9.21,-6.18 13.09,-10.17 3.87,-3.99 7.15,-8.44 9.85,-13.37 2.7,-4.92 4.76,-10.25 6.17,-16.01 1.4,-5.76 2.12,-11.83 2.12,-18.19"
         inkscape:connector-curvature="0" /><path
    id="path16"
    style="fill:#ffffff;fill-opacity:1;fill-rule:nonzero;stroke:none"
    d="m 2583.68,2676.41 c -0.72,-1.26 -1.48,-2.18 -2.29,-2.75 -0.81,-0.57 -1.82,-0.85 -3.02,-0.85 -1.26,0 -2.62,0.46 -4.09,1.39 -1.48,0.93 -3.23,1.97 -5.27,3.11 -2.04,1.13 -4.42,2.17 -7.15,3.11 -2.73,0.92 -5.96,1.38 -9.68,1.38 -3.36,0 -6.3,-0.4 -8.82,-1.21 -2.52,-0.81 -4.63,-1.93 -6.34,-3.38 -1.72,-1.43 -2.99,-3.16 -3.83,-5.16 -0.84,-2.02 -1.26,-4.22 -1.26,-6.63 0,-3.05 0.85,-5.6 2.57,-7.64 1.71,-2.04 3.97,-3.78 6.79,-5.23 2.82,-1.43 6.03,-2.72 9.63,-3.86 3.6,-1.15 7.29,-2.36 11.07,-3.65 3.78,-1.29 7.47,-2.79 11.08,-4.5 3.59,-1.71 6.8,-3.87 9.63,-6.48 2.81,-2.61 5.07,-5.8 6.79,-9.58 1.71,-3.78 2.56,-8.37 2.56,-13.77 0,-5.88 -1.01,-11.39 -3.02,-16.52 -2,-5.13 -4.94,-9.6 -8.82,-13.4 -3.86,-3.82 -8.59,-6.82 -14.17,-9.01 -5.58,-2.19 -11.97,-3.28 -19.16,-3.28 -4.15,0 -8.23,0.4 -12.25,1.21 -4.01,0.81 -7.87,1.96 -11.56,3.47 -3.69,1.49 -7.16,3.3 -10.39,5.4 -3.25,2.1 -6.13,4.43 -8.65,7.02 l 7.11,11.6 c 0.6,0.84 1.38,1.55 2.35,2.12 0.95,0.57 1.97,0.86 3.05,0.86 1.5,0 3.12,-0.61 4.87,-1.85 1.73,-1.23 3.8,-2.59 6.21,-4.1 2.39,-1.49 5.19,-2.86 8.41,-4.09 3.21,-1.23 7.07,-1.84 11.56,-1.84 6.9,0 12.24,1.63 16.02,4.9 3.78,3.27 5.68,7.97 5.68,14.09 0,3.42 -0.86,6.21 -2.57,8.37 -1.71,2.16 -3.98,3.97 -6.8,5.44 -2.82,1.47 -6.02,2.71 -9.63,3.74 -3.6,1.01 -7.26,2.13 -10.97,3.33 -3.72,1.2 -7.39,2.64 -10.99,4.32 -3.59,1.68 -6.81,3.86 -9.63,6.57 -2.82,2.69 -5.09,6.07 -6.8,10.12 -1.7,4.05 -2.55,9.05 -2.55,14.99 0,4.73 0.93,9.36 2.83,13.85 1.89,4.5 4.64,8.5 8.23,11.98 3.6,3.47 8.04,6.26 13.32,8.36 5.28,2.1 11.34,3.16 18.18,3.16 7.68,0 14.76,-1.2 21.24,-3.6 6.48,-2.41 12.01,-5.77 16.57,-10.08 l -6.04,-11.43"
    inkscape:connector-curvature="0" /><path
    id="path18"
    style="fill:#ffffff;fill-opacity:1;fill-rule:nonzero;stroke:none"
    d="m 2718.94,2700.07 v -19.88 h -39.24 v -110.25 h -24.21 v 110.25 h -39.25 v 19.88 h 102.7"
    inkscape:connector-curvature="0" /><path
    id="path20"
    style="fill:#ffffff;fill-opacity:1;fill-rule:nonzero;stroke:none"
    d="m 2830.37,2700.07 v -19.25 h -57.78 v -36.1 h 45.54 v -18.62 h -45.54 v -36.82 h 57.78 v -19.34 h -82.08 v 130.13 h 82.08"
    inkscape:connector-curvature="0" /><path
    id="path22"
    style="fill:#ffffff;fill-opacity:1;fill-rule:nonzero;stroke:none"
    d="m 2889.33,2638.16 h 15.11 c 4.56,0 8.54,0.57 11.93,1.71 3.39,1.13 6.18,2.71 8.37,4.72 2.19,2.01 3.82,4.4 4.91,7.15 1.07,2.77 1.62,5.79 1.62,9.09 0,6.61 -2.18,11.67 -6.53,15.22 -4.35,3.53 -11,5.3 -19.94,5.3 h -15.47 z m 0,-17.37 v -50.85 h -24.21 v 130.13 h 39.68 c 8.82,0 16.4,-0.9 22.73,-2.74 6.33,-1.83 11.52,-4.4 15.57,-7.7 4.05,-3.3 7.04,-7.24 8.95,-11.83 1.92,-4.59 2.88,-9.64 2.88,-15.17 0,-4.37 -0.64,-8.51 -1.93,-12.41 -1.29,-3.91 -3.15,-7.44 -5.58,-10.63 -2.43,-3.18 -5.43,-5.96 -9,-8.36 -3.57,-2.41 -7.64,-4.32 -12.2,-5.77 3.07,-1.73 5.7,-4.22 7.92,-7.47 l 32.59,-48.05 h -21.88 c -4.14,0 -7.14,1.62 -8.99,4.86 l -27.36,41.67 c -1.03,1.55 -2.15,2.67 -3.38,3.33 -1.23,0.65 -3.05,0.99 -5.44,0.99 h -10.35"
    inkscape:connector-curvature="0" /><path
    id="path24"
    style="fill:#ffffff;fill-opacity:1;fill-rule:nonzero;stroke:none"
    d="m 3018.87,2638.16 h 15.11 c 4.56,0 8.54,0.57 11.93,1.71 3.39,1.13 6.18,2.71 8.37,4.72 2.19,2.01 3.83,4.4 4.91,7.15 1.07,2.77 1.62,5.79 1.62,9.09 0,6.61 -2.18,11.67 -6.53,15.22 -4.35,3.53 -11,5.3 -19.93,5.3 h -15.48 z m 0,-17.37 v -50.85 h -24.21 v 130.13 h 39.69 c 8.81,0 16.39,-0.9 22.72,-2.74 6.33,-1.83 11.52,-4.4 15.57,-7.7 4.05,-3.3 7.04,-7.24 8.95,-11.83 1.93,-4.59 2.88,-9.64 2.88,-15.17 0,-4.37 -0.64,-8.51 -1.93,-12.41 -1.29,-3.91 -3.15,-7.44 -5.58,-10.63 -2.43,-3.18 -5.43,-5.96 -9,-8.36 -3.57,-2.41 -7.64,-4.32 -12.2,-5.77 3.07,-1.73 5.7,-4.22 7.92,-7.47 l 32.59,-48.05 h -21.88 c -4.14,0 -7.13,1.62 -8.99,4.86 l -27.36,41.67 c -1.03,1.55 -2.15,2.67 -3.38,3.33 -1.23,0.65 -3.05,0.99 -5.44,0.99 h -10.35"
    inkscape:connector-curvature="0" /><path
    id="path26"
    style="fill:#ffffff;fill-opacity:1;fill-rule:nonzero;stroke:none"
    d="m 3206.28,2700.07 v -19.25 h -57.78 v -36.1 h 45.53 v -18.62 h -45.53 v -36.82 h 57.78 v -19.34 h -82.08 v 130.13 h 82.08"
    inkscape:connector-curvature="0" /><path
    id="path28"
    style="fill:#ffffff;fill-opacity:1;fill-rule:nonzero;stroke:none"
    d="m 3265.63,2569.94 h -24.3 v 130.13 h 24.3 v -130.13"
    inkscape:connector-curvature="0" /><path
    id="path30"
    style="fill:#ffffff;fill-opacity:1;fill-rule:nonzero;stroke:none"
    d="m 3398.36,2600.63 c 1.32,0 2.49,-0.52 3.52,-1.53 l 9.54,-10.35 c -5.29,-6.55 -11.78,-11.56 -19.5,-15.03 -7.7,-3.48 -16.96,-5.22 -27.76,-5.22 -9.66,0 -18.34,1.64 -26.05,4.94 -7.71,3.3 -14.3,7.89 -19.76,13.77 -5.46,5.89 -9.64,12.9 -12.55,21.07 -2.91,8.16 -4.36,17.07 -4.36,26.72 0,9.79 1.55,18.75 4.67,26.87 3.12,8.13 7.51,15.14 13.19,21.02 5.67,5.87 12.43,10.45 20.29,13.73 7.86,3.26 16.56,4.9 26.1,4.9 9.49,0 17.89,-1.56 25.25,-4.68 7.34,-3.12 13.6,-7.21 18.76,-12.25 l -8.1,-11.25 c -0.48,-0.72 -1.09,-1.34 -1.84,-1.88 -0.76,-0.55 -1.79,-0.81 -3.11,-0.81 -0.9,0 -1.83,0.25 -2.79,0.76 -0.96,0.51 -2,1.14 -3.15,1.9 -1.14,0.74 -2.46,1.57 -3.96,2.47 -1.5,0.89 -3.23,1.72 -5.22,2.47 -1.98,0.75 -4.27,1.38 -6.88,1.89 -2.61,0.51 -5.63,0.76 -9.04,0.76 -5.82,0 -11.16,-1.03 -15.98,-3.1 -4.84,-2.07 -8.99,-5.07 -12.47,-9 -3.48,-3.93 -6.17,-8.73 -8.1,-14.4 -1.92,-5.66 -2.88,-12.14 -2.88,-19.4 0,-7.31 1.04,-13.82 3.11,-19.53 2.07,-5.69 4.87,-10.49 8.42,-14.39 3.53,-3.91 7.7,-6.89 12.5,-8.96 4.8,-2.07 9.97,-3.1 15.48,-3.1 3.3,0 6.28,0.17 8.96,0.54 2.66,0.36 5.13,0.92 7.38,1.7 2.25,0.79 4.38,1.79 6.39,3.02 2.01,1.23 4,2.75 5.98,4.54 0.6,0.55 1.23,0.98 1.89,1.31 0.66,0.33 1.36,0.5 2.07,0.5"
    inkscape:connector-curvature="0" /><path
    id="path32"
    style="fill:#ffffff;fill-opacity:1;fill-rule:nonzero;stroke:none"
    d="m 3550.76,2569.94 h -24.3 v 56.88 h -61.11 v -56.88 h -24.3 v 130.13 h 24.3 v -55.97 h 61.11 v 55.97 h 24.3 v -130.13"
    inkscape:connector-curvature="0" /><path
    id="path34"
    style="fill:#ffffff;fill-opacity:1;fill-rule:nonzero;stroke:none"
    d="m 4158.41,2925.88 c 0,4.91 0,317.51 0,317.51 h -96.56 l -8.77,-30.09 c 33.55,0 37.62,-11.6 38.11,-36.5 l 0.07,0.45 v -251.37 c -0.49,-24.9 -4.56,-36.5 -38.12,-36.5 v -30.08 h 143.39 v 30.08 c -33.56,0 -37.62,11.6 -38.12,36.5 z m -93.9,437.92 H 3912.5 v -29.68 h 16.22 c 15.63,0 27.31,-2.72 35.02,-8.12 7.7,-5.4 11.57,-14.2 11.57,-26.39 0,-8.17 -5.65,-29.02 -7.6,-36.93 l -92.11,-314.92 -118.69,411.2 h -51.07 l -113.59,-422.19 -94.84,337.31 c -1.38,5.27 -2.64,9.99 -3.79,14.16 -3.54,12.74 -2.16,29.32 8.81,37.76 7.01,5.4 17.64,8.12 31.91,8.12 h 16.23 v 29.68 h -194.64 v -29.68 c 14.26,0 29.67,0.66 41.42,-7.59 9.5,-6.71 14.43,-18.52 17.94,-29.68 L 3544.7,2859.3 h 65.21 l 108.01,395.81 115.26,-395.81 h 63.49 l 121.08,419.97 c 3.44,11.71 6.91,21.13 10.35,28.27 9.67,20.06 20.29,24.72 36.41,26.58 z m -674.27,-287.12 h -70.79 c -5.33,0 -9.66,-4.32 -9.66,-9.66 v -10.43 c 0,-5.34 4.33,-9.66 9.66,-9.66 h 70.79 c 5.34,0 9.66,4.32 9.66,9.66 v 10.43 c 0,5.34 -4.32,9.66 -9.66,9.66 z M 4459.4,3034.9 c -8.75,9.09 -19.88,17.49 -33.41,25.19 -13.52,7.69 -29.74,15.51 -48.61,23.44 -15.88,6.52 -29.46,12.41 -40.76,17.66 -11.31,5.25 -20.52,10.66 -27.63,16.27 -7.12,5.59 -12.31,11.71 -15.57,18.36 -3.27,6.65 -4.89,14.52 -4.89,23.61 0,8.39 1.27,16.1 3.84,23.09 2.56,7 6.59,13.05 12.07,18.19 5.48,5.13 12.53,9.09 21.16,11.9 8.62,2.79 19.01,4.19 31.13,4.19 21.22,0 36.79,-6.65 46.7,-19.93 9.91,-13.31 14.87,-31.96 14.87,-55.98 16.55,0 29.32,3.9 38.31,11.72 8.97,7.81 13.46,18.24 13.46,31.31 0,8.85 -2.22,17.32 -6.65,25.36 -4.43,8.05 -11.08,15.04 -19.93,20.98 -8.87,5.95 -19.82,10.67 -32.89,14.17 -13.06,3.5 -28.1,5.25 -45.12,5.25 -20.29,0 -38.72,-2.21 -55.27,-6.64 -16.56,-4.44 -30.78,-10.91 -42.68,-19.42 -11.89,-8.51 -21.04,-19.06 -27.46,-31.66 -6.41,-12.59 -9.62,-27.05 -9.62,-43.37 0,-15.63 2.22,-29.1 6.65,-40.41 4.43,-11.31 11.07,-21.4 19.94,-30.26 8.86,-8.86 20.11,-17.08 33.75,-24.66 13.65,-7.58 29.68,-15.45 48.1,-23.61 17.26,-7.46 31.6,-14.11 43.03,-19.94 11.42,-5.83 20.47,-11.54 27.11,-17.14 6.65,-5.59 11.31,-11.6 13.99,-18.01 2.68,-6.42 4.03,-14.05 4.03,-22.91 0,-9.57 -1.75,-18.37 -5.25,-26.41 -3.5,-8.05 -8.57,-14.93 -15.22,-20.65 -6.65,-5.71 -14.87,-10.14 -24.66,-13.29 -9.8,-3.15 -21.11,-4.72 -33.93,-4.72 -14.47,0 -26.65,2.39 -36.55,7.17 -9.92,4.78 -17.91,11.31 -23.97,19.59 -6.06,8.28 -10.38,17.89 -12.94,28.86 -2.57,10.95 -3.85,22.74 -3.85,35.33 -4.2,0 -8.92,-0.76 -14.17,-2.28 -5.24,-1.51 -10.14,-4.13 -14.69,-7.87 -4.54,-3.72 -8.4,-8.8 -11.55,-15.21 -3.15,-6.42 -4.72,-14.41 -4.72,-23.96 0,-12.59 2.8,-23.62 8.4,-33.06 5.6,-9.44 13.53,-17.37 23.79,-23.79 10.26,-6.41 22.68,-11.19 37.26,-14.34 14.57,-3.15 30.83,-4.72 48.79,-4.72 21.22,0 40.52,2.33 57.89,7 17.37,4.66 32.24,11.71 44.6,21.15 12.36,9.45 21.92,21.18 28.69,35.17 6.76,13.99 10.14,30.31 10.14,48.96 0,14.93 -2.09,28.11 -6.3,39.54 -4.19,11.42 -10.67,21.69 -19.41,30.78 z m -294.06,433.09 c -2.18,2.12 -3.13,5.21 -2.5,8.19 l 10.09,48.27 c 0.66,3.15 -2.65,5.64 -5.5,4.14 l -43.62,-23.01 c -2.69,-1.41 -5.92,-1.36 -8.56,0.15 l -42.79,24.52 c -2.79,1.6 -6.19,-0.78 -5.64,-3.95 l 8.4,-48.59 c 0.52,-3 -0.53,-6.06 -2.78,-8.1 l -36.55,-33.12 c -2.38,-2.16 -1.17,-6.12 2.02,-6.58 l 48.81,-7.03 c 3.01,-0.43 5.59,-2.38 6.84,-5.15 l 20.21,-44.99 c 1.32,-2.94 5.46,-3.01 6.88,-0.12 l 21.77,44.25 c 1.34,2.73 3.99,4.59 7.01,4.92 l 49.03,5.31 c 3.2,0.35 4.55,4.27 2.24,6.51 z m 845.19,-570.39 c 0,21.62 -17.3,38.55 -39.67,38.55 -22.41,0 -39.97,-16.93 -39.97,-38.55 0,-21.77 17.56,-38.83 39.97,-38.83 22.25,0 39.67,17.06 39.67,38.83 z m 8.8,0.01 c 0,-26.55 -21.35,-47.61 -48.47,-47.61 -27.12,0 -48.77,21.06 -48.77,47.61 0,26.54 21.65,47.32 48.77,47.32 h 0.29 c 26.83,0 48.18,-20.78 48.18,-47.32 z m -1891.75,130.95 -90.97,257.89 -91.05,-250.2 c 30.14,-12.39 63.49,-19.27 99.17,-19.27 29.84,0 57.51,4.06 82.85,11.58 z m 164.29,-146.5 h 9.45 v -30.11 h -197.11 v 30.11 h 16.45 c 36.89,0 48.03,20.51 41.49,46.56 -1.05,4.2 -2.5,8.99 -4.37,14.35 l -20.61,58.42 c -31.78,-11.25 -67.36,-17.74 -106.21,-17.74 -35.86,0 -68.83,5.71 -98.73,15.96 l -18.83,-51.74 c -2.09,-5.59 -3.73,-11.15 -4.89,-16.62 -4.87,-22.8 1.41,-34.66 9.97,-40.8 7.82,-5.59 19.78,-8.39 35.89,-8.39 h 16.45 v -30.11 h -175.05 v 30.11 h 13.65 c 7.01,0 12.96,0.75 17.86,2.27 11.75,3.64 19.16,14.69 24.68,25.74 3.62,7.23 7.64,16.57 12.08,28.01 l 29.23,78.28 c -99.81,52.56 -155.87,161.38 -155.87,273.81 0,308.42 343.19,409.83 636.61,409.83 256.54,0 509.98,-96.02 649.54,-200.48 1.09,-0.81 1.37,-2.34 0.64,-3.49 -0.73,-1.15 -2.23,-1.54 -3.43,-0.9 -101.16,53.95 -322.72,156.39 -629.56,156.39 -268.15,0 -604.68,-84.68 -604.68,-368.43 0,-96.31 46.94,-180.82 121.38,-227.54 l 115.09,308.25 H 3079 l 111.92,-306.25 c 44.72,28.62 78.12,70.54 98.21,120.35 0.44,1.07 1.61,1.65 2.73,1.34 1.11,-0.3 1.83,-1.4 1.66,-2.55 -8.49,-56.38 -42.02,-107.86 -93.69,-143.52 l 41.28,-112.96 c 2.8,-7.46 5.66,-13.65 8.57,-18.55 9.6,-16.13 23.57,-19.6 42.19,-19.6 z m 1687.93,24.49 c 0,4.33 -3.17,7.21 -10.09,7.21 -2.89,0 -4.91,-0.28 -6.06,-0.57 v -13.56 h 5.19 c 6.06,0 10.96,2.02 10.96,6.92 z m 10.39,-21.93 c 1.45,-7.21 2.6,-9.81 3.46,-11.54 h -11.54 c -1.44,1.73 -2.31,5.77 -3.75,11.54 -0.86,4.91 -3.75,7.22 -9.81,7.22 h -5.2 v -18.76 h -10.96 v 47.32 c 4.33,0.58 10.39,1.45 18.18,1.45 8.95,0 12.98,-1.45 16.16,-3.75 2.88,-2.03 4.91,-5.49 4.91,-10.11 0,-5.76 -4.34,-9.52 -9.82,-11.25 v -0.57 c 4.62,-1.45 6.93,-5.2 8.37,-11.55 z m -136.39,46.17 v 179.32 c 0,88.57 -37.59,140.24 -125.09,140.24 -46.45,0 -86.84,-18.34 -107.53,-61.31 v 214.56 h -57.5 -10.02 -38.11 v -30.09 c 33.56,0 37.62,-11.6 38.11,-36.5 0,-119.3 0,-361.67 0,-411.13 -0.49,-24.9 -4.55,-36.5 -38.11,-36.5 v -30.08 h 143.74 v 30.08 c -33.53,0 -37.62,11.59 -38.11,36.45 v 154.35 c 0,64.07 26.78,124.38 86.75,124.38 59.61,0 78.7,-37.86 78.7,-97.95 v -192.54 c 0,-25.73 15.46,-64.07 68.82,-64.07 38.79,0.19 45.7,29.37 45.7,29.37 0,0 -47.35,-6.99 -47.35,51.42 z M 1766.72,3052.4 c -35.16,0 -97.06,3.95 -129.79,-24.66 -8.39,-7.34 -14.4,-16.39 -18,-27.12 -3.62,-10.72 -5.43,-23.08 -5.43,-37.08 0,-22.38 4.72,-39.12 14.17,-50.2 9.44,-11.07 24.07,-16.61 43.9,-16.61 14.45,0 27.58,2.33 39.36,7.01 11.77,4.65 21.79,11.3 30.07,19.93 8.28,8.62 14.64,19.12 19.07,31.49 4.43,12.34 6.65,26.1 6.65,41.27 z m 114.03,-162.66 v -1.93 c -0.26,-7.6 -4.17,-35.51 -47.97,-35.51 -46.73,0 -58.36,58.44 -59.9,67.59 l -0.21,1.33 c -7.47,-10.02 -22.77,-68.56 -117.55,-68.56 -15.86,0 -30.6,2.27 -44.24,6.82 -13.64,4.54 -25.43,11.55 -35.33,20.99 -9.92,9.45 -17.67,21.34 -23.26,35.68 -5.61,14.34 -8.4,31.31 -8.4,50.9 0,38 13.52,66.22 40.58,84.64 54.41,37.07 132.38,32.2 182.25,32.2 v 43.02 c 0,12.82 -0.7,24.66 -2.1,35.5 -1.4,10.85 -4.43,20.17 -9.1,27.99 -4.66,7.81 -11.37,13.87 -20.11,18.18 -8.75,4.33 -20.46,6.48 -35.16,6.48 -13.76,0 -24.9,-1.92 -33.4,-5.77 -8.52,-3.85 -15.17,-9.27 -19.94,-16.26 -4.78,-7 -7.99,-15.29 -9.62,-24.85 -1.64,-9.56 -2.45,-19.94 -2.45,-31.12 -19.83,0 -34.92,3.37 -45.3,10.14 -10.38,6.76 -15.57,18.42 -15.57,34.97 0,12.36 3.38,22.86 10.14,31.49 6.77,8.62 16.04,15.68 27.81,21.17 11.78,5.47 25.48,9.49 41.11,12.06 15.62,2.57 32.3,3.85 50.03,3.85 21.91,0 41.03,-2.16 57.36,-6.47 16.32,-4.32 29.96,-11.37 40.92,-21.16 10.96,-9.8 19.19,-22.56 24.68,-38.31 5.47,-15.74 8.21,-35.04 8.21,-57.89 v -185.75 c 0,-10.03 0.55,-16.97 1.72,-23.59 7.3,-41.2 44.8,-27.83 44.8,-27.83 z m 352.89,14.68 c -12.25,10.02 -24.55,24.6 -36.91,43.73 l -95.49,141.67 50.37,56.67 c 18.65,21.22 35.97,37.66 51.94,49.32 15.97,11.66 32.24,17.49 48.81,17.49 v 30.09 h -50.69 v 0 h -91.72 v -30.09 c 32.2,0 40.3,-9.51 20.84,-33.43 -19.65,-21.62 -37.52,-41.3 -40.75,-44.92 l -80.86,-88.45 v 275.83 81.68 h -105.63 v -30.08 c 33.56,0 37.62,-11.61 38.12,-36.51 v -411.54 c -0.5,-24.9 -4.56,-36.5 -38.12,-36.5 v -30.08 h 143.74 v 30.08 c -33.55,0 -37.61,11.6 -38.11,36.5 v 0 63.04 l 46.93,52.28 68.33,-104.61 c 10.02,-15.86 19.41,-28.14 27.28,-37.61 24.66,-29.63 36.75,-47.03 76.8,-47.03 44.23,0 49.72,37.43 49.72,37.43 h -2.1 c -16.09,0 -30.26,5.01 -42.5,15.04 z m -991.23,56.67 -148.33,409.63 H 960.473 v -30.09 c 33.558,0 37.625,-11.6 38.117,-36.5 v -378.25 c -0.492,-24.9 -4.559,-36.5 -38.117,-36.5 v -30.08 h 119.967 v 30.08 c -33.55,0 -37.62,11.6 -38.11,36.5 l -0.01,-0.08 v 390 l 166.16,-456.5 h 38.82 l 164.06,457.9 v -391.32 c -0.49,-24.9 -4.55,-36.5 -38.11,-36.5 v -30.08 h 145.14 v 30.08 c -33.55,0 -37.62,11.6 -38.11,36.5 v 378.25 c 0.49,24.9 4.56,36.5 38.11,36.5 v 30.09 h -129.07 z m 1258.94,123.83 c 0,18.89 -1.4,36.14 -4.2,51.78 -2.79,15.61 -7.23,29.03 -13.29,40.22 -6.07,11.19 -14.06,19.82 -23.96,25.89 -9.91,6.06 -22.1,9.09 -36.56,9.09 -26.59,0 -47.04,-10.78 -61.39,-32.35 -14.34,-21.58 -22.8,-53.12 -25.36,-94.63 z m 62.09,68.74 c 6.87,-21.34 10.32,-46.12 10.32,-74.34 v -32.87 h -238.57 c 0.47,-26.13 3.09,-48.58 7.87,-67.34 4.77,-18.78 11.66,-34.23 20.65,-46.35 8.97,-12.14 19.98,-21.06 33.04,-26.76 13.06,-5.73 28.1,-8.58 45.13,-8.58 12.36,0 23.85,1.41 34.46,4.21 10.61,2.79 20.23,6.51 28.86,11.19 8.62,4.66 16.26,9.96 22.91,15.91 6.65,5.94 12.07,12.18 16.26,18.72 3.27,-1.41 6.36,-4.32 9.27,-8.75 2.92,-4.43 4.38,-9.68 4.38,-15.74 0,-7.23 -2.57,-14.99 -7.69,-23.26 -5.13,-8.28 -12.95,-15.92 -23.44,-22.91 -10.5,-7 -23.61,-12.83 -39.36,-17.49 -15.74,-4.67 -34.22,-7 -55.44,-7 -25.89,0 -49.15,4.37 -69.79,13.12 -20.63,8.74 -38.07,21.51 -52.3,38.3 -14.22,16.8 -25.13,37.37 -32.71,61.74 -7.57,24.37 -11.36,52.06 -11.36,83.08 0,66.93 13.76,117.3 41.28,151.12 27.51,33.81 66.69,50.72 117.53,50.72 23.09,0 43.84,-3.62 62.26,-10.84 18.42,-7.23 34.05,-18.02 46.88,-32.36 12.83,-14.35 22.68,-32.18 29.56,-53.52 z m 170.44,-86.64 v -10.43 c 0,-5.34 -4.32,-9.66 -9.66,-9.66 h -70.79 c -5.34,0 -9.66,4.32 -9.66,9.66 v 10.43 c 0,5.34 4.32,9.66 9.66,9.66 h 70.79 c 5.34,0 9.66,-4.32 9.66,-9.66"
    inkscape:connector-curvature="0" /></g></g></svg>
